<?xml version="1.0" encoding="UTF-8" standalone="no"?>
<!-- Generator: Adobe Illustrator 11.0, SVG Export Plug-In . SVG Version: 6.0.0 Build 78)  -->

<svg
   width="66.489601"
   height="66.31147"
   viewBox="0 0 62.334 62.167"
   enable-background="new -0.75 -0.667 62.334 62.167"
   xml:space="preserve"
   id="svg2"
   version="1.1"
   xmlns="http://www.w3.org/2000/svg"
   xmlns:svg="http://www.w3.org/2000/svg"
   xmlns:i="http://ns.adobe.com/AdobeIllustrator/10.0/"><defs
     id="defs20" /><g
     transform="translate(5.491555e-8,-0.5382424)"     
     id="Layer_1"><path
       id="rect15"
       style="fill:#ff0000;stroke-width:1.06667"
       d="M 22.591797 3.1992188 L 22.591797 22.810547 L 1.9589844 22.810547 L 1.9589844 41.8125 L 22.591797 41.8125 L 22.591797 61.294922 L 41.859375 61.294922 L 41.859375 41.8125 L 62.351562 41.8125 L 62.351562 22.810547 L 41.859375 22.810547 L 41.859375 3.1992188 L 22.591797 3.1992188 z "
       transform="matrix(0.93749997,0,0,0.93749997,-5.491555e-8,0.5382424)" /><path
       style="fill:#ffffff;fill-rule:evenodd;stroke:#000000;stroke-width:0.718779;stroke-opacity:1"
       id="rod"
       d="m 29.382874,53.304924 c 0,2.263692 2.396418,2.263692 2.396418,0 L 32.977501,8.6778494 c 0,-2.5870768 -4.792835,-2.5870768 -4.792835,0 l 1.198208,45.5972286 z" /><path
       style="fill:#ffffff;fill-rule:evenodd;stroke:#000000;stroke-width:0.718779;stroke-opacity:1"
       id="body"
       d="m 32.558722,47.836335 c 2.79582,1.293538 1.198209,4.850769 -1.198209,4.850769 0.798806,-1.616923 1.198209,-2.910462 1.198209,-4.850769 z m 0.399403,-12.935384 c 3.994029,2.910461 1.597612,7.114461 -1.198209,8.407999 -2.396417,0.970154 -2.396417,2.263693 -2.396417,4.850769 -3.594626,-3.233846 -1.597612,-6.144307 1.597611,-7.76123 1.997015,-1.293538 1.997015,-3.233846 1.997015,-5.497538 z m 0.399403,-9.701538 c 0,3.55723 -6.78985,4.527384 -6.78985,7.114461 0,0.970154 0.399403,2.910461 2.396418,3.880615 0,-3.55723 3.594626,-3.880615 5.991043,-5.820923 2.795821,-2.263692 1.683196,-7.133267 -2.193688,-9.701538 0,1.141454 0.596077,3.233846 0.596077,4.527385 z m -4.792835,-1.940308 c -3.282754,-2.126358 -5.553598,-5.280222 -5.103242,-8.413409 0,0 0.304565,-1.322494 0.626057,-1.908175 0.30607,-0.826052 1.494674,-1.831028 1.725234,-1.973974 2.705445,-1.6773736 8.48352,-1.5588612 8.48352,0.703656 0,2.923358 -10.208754,1.270318 -7.049518,6.020775 l 1.353959,1.827099 z" /><path
       id="eye"
       style="fill:#000000;fill-rule:evenodd;stroke:none;stroke-width:0.718779"
       d="m 30.409699,11.61726 c 3.322401,-0.970154 -3.322403,-0.970154 0,0 z" /></g></svg>
